<svg xmlns="http://www.w3.org/2000/svg" width="138" height="40" viewBox="0 0 138 40"><path fill="#555" d="M38.756 19.887v.088c0 5.328 3.967 9.763 9.619 9.763v6.887c-5.243 0-9.721-2.16-12.753-5.597l2.16 5.054h-7.786l-2.544-6.576h-13.351l-2.545 6.576h-7.604l2.826-6.608c7.396-3.292 15.693-6.073 24.665-8.218-.019-.321-.029-.641-.029-.967v-.091c0-9.031 7.114-16.428 16.96-16.428v6.444c-5.651 0-9.618 4.348-9.618 9.673zm-8.396-1.164c-2.102.284-4.36.612-6.702.986l-2.883-7.448-3.295 8.512c-2.549.472-5.122.987-7.646 1.545l7.796-18.231h6.474l6.256 14.636z"/><rect x="55.921" y="4.14" fill="#555" width="1.08" height="31.86"/><path d="M64.6 11.184v-.037c0-3.692 2.876-6.717 6.81-6.717 2.338 0 3.748.631 5.103 1.781l-1.8 2.171c-1.002-.835-1.893-1.317-3.396-1.317-2.078 0-3.729 1.837-3.729 4.045v.037c0 2.375 1.633 4.119 3.934 4.119 1.039 0 1.967-.26 2.69-.779v-1.855h-2.876v-2.468h5.641v5.641c-1.336 1.132-3.173 2.06-5.548 2.06-4.046-.002-6.829-2.841-6.829-6.681zm14.459-3.489h2.82v2.004c.575-1.373 1.503-2.264 3.173-2.189v2.95h-.148c-1.874 0-3.024 1.132-3.024 3.507v3.674h-2.82v-9.946zm6.329 7.088v-.037c0-2.171 1.651-3.173 4.008-3.173 1.002 0 1.726.167 2.431.408v-.167c0-1.169-.724-1.818-2.134-1.818-1.076 0-1.837.204-2.746.538l-.705-2.152c1.095-.482 2.171-.798 3.859-.798 1.54 0 2.653.408 3.358 1.113.742.742 1.076 1.837 1.076 3.173v5.771h-2.728v-1.076c-.687.761-1.633 1.262-3.006 1.262-1.873-.001-3.413-1.077-3.413-3.044zm6.475-.649v-.501c-.482-.223-1.113-.371-1.8-.371-1.206 0-1.948.482-1.948 1.373v.037c0 .761.631 1.206 1.54 1.206 1.318 0 2.208-.724 2.208-1.744zm4.735-6.439h2.82v1.429c.687-.928 1.632-1.614 3.099-1.614 2.318 0 4.527 1.818 4.527 5.14v.037c0 3.321-2.172 5.14-4.527 5.14-1.504 0-2.431-.687-3.099-1.484v4.268h-2.82v-12.916zm7.627 4.992v-.037c0-1.651-1.113-2.746-2.432-2.746-1.317 0-2.412 1.095-2.412 2.746v.037c0 1.651 1.095 2.746 2.412 2.746 1.318 0 2.432-1.077 2.432-2.746zm4.53-8.591h2.82v5.01c.649-.835 1.484-1.596 2.913-1.596 2.134 0 3.377 1.41 3.377 3.692v6.438h-2.82v-5.548c0-1.336-.631-2.022-1.707-2.022s-1.763.687-1.763 2.022v5.548h-2.82v-13.544zm11.248 0h2.969v2.505h-2.969v-2.505zm.074 3.599h2.82v9.945h-2.82v-9.945zm4.622 5.029v-.037c0-2.839 2.171-5.177 5.214-5.177 1.874 0 3.043.631 3.971 1.67l-1.726 1.855c-.631-.668-1.262-1.095-2.264-1.095-1.41 0-2.412 1.243-2.412 2.709v.037c0 1.521.983 2.746 2.523 2.746.946 0 1.596-.408 2.282-1.058l1.651 1.67c-.965 1.058-2.078 1.818-4.063 1.818-2.986.001-5.176-2.3-5.176-5.138zm-59.524 10.364h5.065c4.082 0 6.902 2.802 6.902 6.457v.037c0 3.655-2.82 6.494-6.902 6.494h-5.065v-12.988zm5.065 10.409c2.338 0 3.915-1.577 3.915-3.878v-.037c0-2.301-1.577-3.915-3.915-3.915h-2.208v7.83h2.208zm8.299-2.338v-.037c0-2.839 2.022-5.177 4.917-5.177 3.321 0 4.843 2.579 4.843 5.399 0 .223-.019.482-.037.742h-6.921c.278 1.28 1.169 1.948 2.431 1.948.946 0 1.633-.297 2.412-1.021l1.614 1.429c-.928 1.15-2.264 1.855-4.063 1.855-2.988.002-5.196-2.095-5.196-5.138zm7.014-.835c-.167-1.262-.909-2.115-2.097-2.115-1.169 0-1.93.835-2.152 2.115h4.249zm3.696 4.435l1.206-1.855c1.076.779 2.208 1.188 3.136 1.188.816 0 1.188-.297 1.188-.742v-.037c0-.612-.965-.816-2.06-1.15-1.392-.408-2.969-1.058-2.969-2.987v-.037c0-2.022 1.633-3.154 3.637-3.154 1.262 0 2.635.427 3.711 1.15l-1.076 1.948c-.983-.575-1.967-.928-2.69-.928-.687 0-1.039.297-1.039.687v.037c0 .557.946.816 2.022 1.188 1.392.464 3.006 1.132 3.006 2.95v.037c0 2.208-1.651 3.21-3.804 3.21-1.392-.002-2.951-.466-4.268-1.505zm9.781-12.228h2.968v2.505h-2.968v-2.505zm.074 3.6h2.82v9.945h-2.82v-9.945zm5.16 11.912l.965-2.115c1.021.575 2.041.909 3.359.909 1.93 0 2.838-.928 2.838-2.709v-.482c-.834 1.002-1.744 1.614-3.246 1.614-2.32 0-4.416-1.688-4.416-4.639v-.037c0-2.969 2.133-4.639 4.416-4.639 1.539 0 2.449.649 3.209 1.484v-1.299h2.82v7.7c0 1.781-.426 3.08-1.262 3.915-.928.928-2.355 1.336-4.285 1.336-1.615.001-3.137-.37-4.398-1.038zm7.162-7.422v-.037c0-1.354-1.057-2.301-2.43-2.301s-2.412.946-2.412 2.301v.037c0 1.373 1.039 2.301 2.412 2.301s2.43-.946 2.43-2.301zm4.939-4.49h2.82v1.41c.649-.835 1.484-1.596 2.913-1.596 2.134 0 3.377 1.41 3.377 3.692v6.438h-2.82v-5.548c0-1.336-.631-2.022-1.707-2.022s-1.763.687-1.763 2.022v5.548h-2.82v-9.944z" fill="#555"/></svg>
