<svg xmlns="http://www.w3.org/2000/svg" viewBox="0 0 500 500" enable-background="new 0 0 500 500"><style type="text/css">.st0{fill:#555555;}</style><g id="Layer_1"><path class="st0" d="M234.3 122.2v.5c0 31.2 23.2 57.2 56.4 57.2v40.4c-30.7 0-57-12.7-74.7-32.8l12.7 29.6h-45.7l-14.9-38.5h-78.2l-14.9 38.5h-44.6l16.6-38.7c43.3-19.3 91.9-35.6 144.5-48.1-.1-1.9-.2-3.8-.2-5.7v-.5c0-52.9 41.7-96.3 99.4-96.3v37.8c-33.1 0-56.4 25.4-56.4 56.6zm-49.2-6.8c-12.3 1.7-25.5 3.6-39.3 5.8l-16.8-43.6-19.3 49.9c-14.9 2.8-30 5.8-44.8 9.1l45.7-106.8h37.9l36.6 85.6zM30.4 251h356.5v6.1h-356.5zM35.4 326.6v-.2c0-19 14.8-34.5 35-34.5 12 0 19.2 3.2 26.2 9.1l-9.2 11.1c-5.1-4.3-9.7-6.8-17.4-6.8-10.7 0-19.2 9.4-19.2 20.8v.2c0 12.2 8.4 21.2 20.2 21.2 5.3 0 10.1-1.3 13.8-4v-9.5h-14.8v-12.7h29v29c-6.9 5.8-16.3 10.6-28.5 10.6-20.8 0-35.1-14.5-35.1-34.3zM109.7 308.7h14.5v10.3c3-7.1 7.7-11.6 16.3-11.2v15.2h-.8c-9.6 0-15.5 5.8-15.5 18v18.9h-14.5v-51.2zM142.2 345.1v-.2c0-11.1 8.5-16.3 20.6-16.3 5.1 0 8.9.9 12.5 2.1v-.9c0-6-3.7-9.3-11-9.3-5.5 0-9.4 1-14.1 2.8l-3.6-11.1c5.6-2.5 11.1-4.1 19.8-4.1 7.9 0 13.6 2.1 17.2 5.7 3.8 3.8 5.5 9.4 5.5 16.3v29.6h-14v-5.5c-3.5 3.9-8.4 6.5-15.4 6.5-9.6 0-17.5-5.5-17.5-15.6zm33.2-3.3v-2.6c-2.5-1.1-5.7-1.9-9.2-1.9-6.2 0-10 2.5-10 7.1v.2c0 3.9 3.2 6.2 7.9 6.2 6.7-.1 11.3-3.8 11.3-9zM199.7 308.7h14.5v7.3c3.5-4.8 8.4-8.3 15.9-8.3 11.9 0 23.3 9.3 23.3 26.4v.2c0 17.1-11.1 26.4-23.3 26.4-7.7 0-12.5-3.5-15.9-7.6v21.9h-14.5v-66.3zm39.2 25.7v-.2c0-8.5-5.7-14.1-12.5-14.1s-12.4 5.6-12.4 14.1v.2c0 8.5 5.6 14.1 12.4 14.1s12.5-5.6 12.5-14.1zM262.1 290.2h14.5v25.8c3.3-4.3 7.6-8.2 15-8.2 11 0 17.3 7.2 17.3 19v33.1h-14.5v-28.5c0-6.9-3.2-10.4-8.8-10.4-5.5 0-9.1 3.5-9.1 10.4v28.5h-14.5v-69.7zM319.9 290.2h15.2v12.9h-15.2v-12.9zm.4 18.5h14.5v51.1h-14.5v-51.1zM344 334.5v-.2c0-14.6 11.1-26.6 26.8-26.6 9.6 0 15.6 3.2 20.4 8.6l-8.9 9.5c-3.2-3.4-6.5-5.6-11.6-5.6-7.2 0-12.4 6.4-12.4 13.9v.2c0 7.8 5.1 14.1 13 14.1 4.9 0 8.2-2.1 11.7-5.4l8.5 8.6c-5 5.4-10.7 9.3-20.9 9.3-15.4 0-26.6-11.8-26.6-26.4zM38.4 387.7h26c21 0 35.4 14.4 35.4 33.2v.2c0 18.8-14.5 33.4-35.4 33.4h-26v-66.8zm26 53.5c12 0 20.1-8.1 20.1-19.9v-.2c0-11.8-8.1-20.1-20.1-20.1h-11.3v40.2h11.3zM107 429.2v-.2c0-14.6 10.4-26.6 25.3-26.6 17.1 0 24.9 13.2 24.9 27.7 0 1.1-.1 2.5-.2 3.8h-35.5c1.4 6.6 6 10 12.5 10 4.9 0 8.4-1.5 12.4-5.2l8.3 7.3c-4.8 5.9-11.6 9.5-20.9 9.5-15.5.1-26.8-10.7-26.8-26.3zm36-4.3c-.9-6.5-4.7-10.9-10.8-10.9-6 0-9.9 4.3-11.1 10.9h21.9zM162 447.7l6.2-9.5c5.5 4 11.3 6.1 16.1 6.1 4.2 0 6.1-1.5 6.1-3.8v-.2c0-3.1-5-4.2-10.6-5.9-7.1-2.1-15.2-5.4-15.2-15.3v-.2c0-10.4 8.4-16.2 18.7-16.2 6.5 0 13.5 2.2 19.1 5.9l-5.5 10c-5.1-3-10.1-4.8-13.8-4.8-3.5 0-5.3 1.5-5.3 3.5v.2c0 2.9 4.9 4.2 10.4 6.1 7.1 2.4 15.4 5.8 15.4 15.2v.2c0 11.3-8.5 16.5-19.5 16.5-7.3-.1-15.3-2.5-22.1-7.8zM212.2 384.9h15.2v12.9h-15.2v-12.9zm.4 18.5h14.5v51.1h-14.5v-51.1zM239.1 464.5l5-10.9c5.2 3 10.5 4.7 17.2 4.7 9.9 0 14.6-4.8 14.6-13.9v-2.4c-4.3 5.1-9 8.3-16.7 8.3-11.9 0-22.7-8.7-22.7-23.8v-.2c0-15.2 11-23.8 22.7-23.8 7.9 0 12.6 3.3 16.5 7.6v-6.7h14.5v39.5c0 9.1-2.2 15.8-6.5 20.1-4.8 4.8-12.1 6.9-22 6.9-8.3 0-16.1-1.9-22.6-5.4zm36.8-38.1v-.2c0-7-5.4-11.8-12.5-11.8s-12.4 4.9-12.4 11.8v.2c0 7.1 5.3 11.8 12.4 11.8s12.5-4.8 12.5-11.8zM301.2 403.4h14.5v7.2c3.3-4.3 7.6-8.2 15-8.2 11 0 17.3 7.2 17.3 19v33.1h-14.5v-28.5c0-6.9-3.2-10.4-8.8-10.4-5.5 0-9.1 3.5-9.1 10.4v28.5h-14.5v-51.1z"/></g></svg>