<svg xmlns="http://www.w3.org/2000/svg" viewBox="0 0 500 500" enable-background="new 0 0 500 500"><style type="text/css">.st0{fill:#555555;}</style><path class="st0" d="M250 15c-129.8 0-235 105.2-235 235s105.2 235 235 235 235-105.2 235-235-105.2-235-235-235zm81.9 82.7c29.3 17.2 52.5 40.4 69.7 69.7-9.9 7.7-21.1 11.2-33.5 10.5-12.4-.7-23.1-5.5-32.1-14.5s-13.9-19.7-14.6-32.1c-.7-12.5 2.8-23.6 10.5-33.6zm26.4 152c0 4.3-1.5 7.9-4.4 10.8-2.9 2.9-6.5 4.4-10.8 4.4s-8-1.5-11.2-4.4c-3.2-2.9-4.7-6.5-4.7-10.8 0-4.3 1.6-8 4.7-11.2 3.2-3.2 6.9-4.7 11.2-4.7s7.9 1.6 10.8 4.7c2.9 3.2 4.4 6.9 4.4 11.2zm-53.8-76.8c2.9-3.1 6.5-4.7 10.8-4.7 4.3 0 8 1.6 11.2 4.7 3.2 3.2 4.7 6.9 4.7 11.2 0 4.3-1.6 7.9-4.7 10.8-3.2 2.9-6.9 4.4-11.2 4.4-4.3 0-7.9-1.5-10.8-4.4-2.9-2.9-4.4-6.5-4.4-10.8 0-4.4 1.4-8.1 4.4-11.2zm-137.1-75.2c7.7 9.9 11.2 21.2 10.5 33.8-.7 12.6-5.4 23.3-14.2 32.1-8.8 8.8-19.5 13.5-32.1 14.2-12.6.7-23.9-2.8-33.8-10.5 17.5-28.7 40.8-52 69.6-69.6zm.7 140.8c3.1 3.2 4.7 6.9 4.7 11.2 0 4.3-1.6 7.9-4.7 10.8-3.2 2.9-6.9 4.4-11.2 4.4-4.3 0-7.9-1.5-10.8-4.4-2.9-2.9-4.4-6.5-4.4-10.8 0-4.3 1.5-8 4.4-11.2 2.9-3.2 6.5-4.7 10.8-4.7 4.3 0 8.1 1.5 11.2 4.7zm-90 11.2c0-16.9 2.3-33.3 6.8-49.1 12.2 1.4 22.4 6.8 30.8 16.2 8.3 9.5 12.5 20.4 12.5 32.8 0 12.4-4.2 23.3-12.5 32.8-8.4 9.5-18.6 14.9-30.8 16.2-4.5-15.7-6.8-32-6.8-48.9zm89.3 151.9c-29.3-17.6-52.6-40.8-69.7-69.7 9.9-7.7 21.1-11.2 33.5-10.5 12.4.7 23.1 5.4 32.1 14.2 9 8.8 13.9 19.5 14.5 32.1.8 12.7-2.7 24-10.4 33.9zm27.5-75.1c-2.9 3.2-6.5 4.7-10.8 4.7-4.3 0-8-1.6-11.2-4.7-3.2-3.2-4.7-6.9-4.7-11.2 0-4.3 1.6-8 4.7-11.2 3.2-2.7 6.9-4.1 11.2-4.1 4.3 0 7.9 1.5 10.8 4.4 2.9 2.9 4.4 6.5 4.4 10.8-.1 4.4-1.5 8.1-4.4 11.3zm.3-131.6c-3.2 2.9-6.9 4.4-11.2 4.4-4.3 0-7.9-1.5-10.8-4.4-2.9-2.9-4.4-6.5-4.4-10.8 0-4.3 1.5-8 4.4-11.2 2.9-3.1 6.5-4.7 10.8-4.7 4.3 0 8 1.6 11.2 4.7 3.1 3.2 4.7 6.9 4.7 11.2 0 4.2-1.6 7.8-4.7 10.8zm54.5 227c-16.9 0-33.3-2-49.1-6.1 1.4-12.6 6.8-23.1 16.2-31.5 9.5-8.3 20.4-12.5 32.8-12.5 12.4 0 23.3 4.2 32.8 12.5 9.5 8.4 14.9 18.8 16.2 31.5-15.7 4-32 6.1-48.9 6.1zm-10.9-89.7c2.9-2.9 6.5-4.4 10.8-4.4 4.3 0 8 1.5 11.2 4.4 3.2 2.9 4.7 6.5 4.7 10.8 0 4.3-1.6 8-4.7 11.2-3.2 3.2-6.9 4.7-11.2 4.7-4.3 0-7.9-1.6-10.8-4.7-2.9-3.1-4.4-6.9-4.4-11.2 0-4.2 1.5-7.8 4.4-10.8zm-4.4-175.2c0-4.3 1.5-8 4.4-11.2 2.9-3.2 6.5-4.7 10.8-4.7 4.3 0 8 1.6 11.2 4.7 3.2 3.2 4.7 6.9 4.7 11.2 0 4.3-1.6 7.9-4.7 10.8-3.2 2.9-6.9 4.4-11.2 4.4-4.3 0-7.9-1.5-10.8-4.4-2.9-3-4.4-6.6-4.4-10.8zm48.1-41.3c-9.5 8.4-20.4 12.5-32.8 12.5-12.4 0-23.3-4.2-32.8-12.5-9.5-8.3-14.9-18.8-16.2-31.5 15.8-4.1 32.1-6.1 49.1-6.1s33.3 2 49.1 6.1c-1.5 12.6-6.9 23.1-16.4 31.5zm22 210.8c-2.9-3.2-4.4-6.9-4.4-11.2 0-4.3 1.5-7.9 4.4-10.8 2.9-2.9 6.5-4.4 10.8-4.4 4.3 0 8 1.5 11.2 4.4 3.2 2.9 4.7 6.5 4.7 10.8 0 4.3-1.6 8-4.7 11.2-3.2 3.2-6.9 4.7-11.2 4.7-4.3 0-7.9-1.6-10.8-4.7zm27.4 75.1c-7.7-9.9-11.2-21.1-10.5-33.5.7-12.4 5.5-23.1 14.6-32.1 9-9 19.8-13.9 32.5-14.6 12.6-.7 23.7 2.8 33.2 10.5-17.3 29.3-40.5 52.5-69.8 69.7zm83.2-102.9c-12.2-1.4-22.5-6.8-30.8-16.2-8.3-9.5-12.5-20.4-12.5-32.8 0-12.4 4.2-23.3 12.5-32.8 8.3-9.5 18.6-14.9 30.8-16.2 4.5 15.8 6.8 32.1 6.8 49.1s-2.3 33.1-6.8 48.9z"/></svg>