<svg xmlns="http://www.w3.org/2000/svg" viewBox="0 0 256 256" enable-background="new 0 0 256 256"><style type="text/css">.st0{fill:#555555;}</style><path id="Layer_1_1_" class="st0" d="M128 7.7c-66.5 0-120.3 53.8-120.3 120.3s53.8 120.3 120.3 120.3 120.3-53.8 120.3-120.3-53.8-120.3-120.3-120.3zm-35.8 180.2h-28.7v-85.5h28.7v85.5zm-14.4-97.3h-.2c-9.5 0-15.7-6.6-15.7-14.7 0-8.4 6.3-14.7 16.1-14.7s15.7 6.4 15.9 14.7c0 8.2-6.2 14.7-16.1 14.7zm116.8 97.3h-28.7v-45.9c0-11.5-4-19.4-14.3-19.4-7.8 0-12.4 5.3-14.5 10.4-.8 1.8-.9 4.4-.9 6.9v47.9h-28.5s.4-77.8 0-85.5h28.5v12c3.6-5.8 10.5-14.1 25.7-14.1 18.7 0 32.7 12.2 32.7 38.5v49.2z"/></svg>