<svg xmlns="http://www.w3.org/2000/svg" viewBox="0 0 500 500" enable-background="new 0 0 500 500"><style type="text/css">.st0{fill:#555555;}</style><path class="st0" d="M250 15c-129.8 0-235 105.2-235 235s105.2 235 235 235 235-105.2 235-235-105.2-235-235-235zm140.6 162.9c.1 3.1.2 6.2.2 9.4 0 95.9-73 206.4-206.4 206.4-41 0-79.1-12-111.2-32.6 5.7.7 11.4 1 17.3 1 34 0 65.3-11.6 90.1-31-31.7-.6-58.5-21.6-67.8-50.4 4.4.8 9 1.3 13.6 1.3 6.6 0 13-.9 19.1-2.5-33.2-6.7-58.2-36-58.2-71.1v-.9c9.8 5.4 21 8.7 32.9 9.1-19.5-13-32.3-35.2-32.3-60.4 0-13.3 3.6-25.8 9.8-36.5 35.8 43.9 89.2 72.8 149.5 75.8-1.2-5.3-1.9-10.8-1.9-16.5 0-40.1 32.5-72.5 72.5-72.5 20.9 0 39.7 8.8 52.9 22.9 16.5-3.3 32-9.3 46.1-17.6-5.4 16.9-16.9 31.2-31.9 40.1 14.7-1.8 28.7-5.7 41.7-11.4-9.6 14.4-21.9 27.2-36 37.4z"/></svg>