<svg xmlns="http://www.w3.org/2000/svg" viewBox="0 0 500 500" enable-background="new 0 0 500 500"><style type="text/css">.st0{fill:#555555;}</style><path class="st0" d="M242.8 188.7c2.4 0 4-.7 5.4-2.2 1.4-1.5 1.8-3.5 1.8-6v-51.9c0-2.1-.4-3.8-1.8-5-1.4-1.3-3.2-1.9-5.5-1.9-2.2 0-3.6.6-5 1.9-1.4 1.3-1.7 3-1.7 5v51.9c0 2.6.4 4.6 1.7 6.1 1.2 1.4 2.8 2.1 5.1 2.1zm7.2-173.7c-129.8 0-235 105.2-235 235s105.2 235 235 235 235-105.2 235-235-105.2-235-235-235zm34 92h17v73.6c0 2.3.6 3.9 1.4 4.9.7 1 2.1 1.5 3.7 1.5 1.3 0 3.2-.7 5.2-2s3.7-3.1 5.7-5.1v-72.9h17v96h-17v-10.7c-4 3.9-6.8 6.8-10.4 8.9-3.5 2-7.1 3-10.4 3-4.1 0-7.1-1.4-9.2-4.3-2.1-2.8-3.1-7.1-3.1-12.8l.1-80.1zm-59.7 4.7c4.8-4.4 11.3-6.6 19.3-6.6 7.3 0 13.5 2.3 18.2 6.9 4.7 4.6 7.2 10.6 7.2 17.8v49.2c0 8.2-2.4 14.6-7 19.2s-11 7-19 7c-7.8 0-14.1-2.4-18.8-7.2-4.7-4.8-7.2-11.2-7.2-19.3v-49.4c0-7.4 2.5-13.3 7.3-17.6zm-52.9-37.7l13 51h1.2l12.4-51h20.3l-24.3 75.2v53.8h-19v-51.4l-23.7-77.6h20.1zm225 300.4c0 23.4-19.2 42.4-42.9 42.4-33.8 1.4-68.3 2-103.6 2-35.2.1-69.8-.6-103.6-2-23.7 0-42.9-19-42.9-42.4-1.4-18.5-2-37.1-2-55.6-.1-18.5.6-37.1 2-55.6 0-23.4 19.2-42.4 42.9-42.4 33.8-1.4 68.3-2 103.6-2 35.2-.1 69.8.6 103.6 2 23.7 0 42.9 19 42.9 42.4 1.4 18.5 2 37.1 2 55.6.1 18.6-.6 37.1-2 55.6zm-208.4-122.4h-63v19h20v112h22v-112h21v-19zm102.5 33.1c-2.8 0-5.8.8-8.5 2.3-2.7 1.5-6 3.8-8 6.7v-42.1h-17v131h17v-7.3c2 3 5.2 5.1 7.9 6.6 2.8 1.4 6 2.1 9.5 2.1 5.3 0 9.9-1.8 12.8-5.5 2.8-3.7 4.8-8.9 4.8-15.8v-53.7c0-7.9-2-13.9-5-18.1-3-4.1-7.8-6.2-13.5-6.2zm-1.5 75.4c0 3.1-.3 5.3-1.3 6.7-1 1.4-2.5 2-4.7 2-1.5 0-3.2-.3-4.5-1-1.4-.7-3.4-1.8-4.4-3.4v-60.4c1-1.3 2.7-2.3 4-2.9 1.2-.6 2.6-1 3.9-1 2.4 0 4.1.9 5.4 2.5 1.3 1.7 1.7 4.2 1.7 7.5l-.1 50zm-68-.7c-2 2.1-3.7 3.9-5.7 5.2-2 1.4-3.8 2-5.1 2-1.7 0-2.6-.5-3.4-1.5-.8-1-.8-2.7-.8-5v-74.5h-19v81.3c0 5.8 1.2 10.1 3.3 13 2.1 2.9 5.3 4.3 9.5 4.3 3.4 0 7-1 10.6-3.1 3.6-2.1 6.5-5.1 10.5-9v10.5h17v-97h-17l.1 73.8zm128-75.9c-8.1 0-15 2.6-20.1 8-5.1 5.3-8 12.1-8 20.5v43.5c0 9.3 2.6 16.7 7.3 22 4.6 5.3 11.1 8 19.2 8 9 0 16-2.5 20.5-7.5s7-12.5 7-22.4v-7h-19v6.3c0 5.7-.5 9.4-1.7 11-1.2 1.7-3.2 2.5-6.2 2.5-2.9 0-5-1-6.2-3-1.2-2-1.9-5.5-1.9-10.6v-18.2h35v-24.6c0-9.2-2.4-16.2-6.8-21.1-4.3-5-10.8-7.4-19.1-7.4zm7 38.1h-16v-9.8c0-4.1.7-7 2-8.7 1.2-1.8 3.4-2.6 6.2-2.6 2.7 0 4.7.9 6 2.6 1.2 1.8 1.8 4.7 1.8 8.7v9.8z"/></svg>